<svg width="460" height="440" viewBox="0 0 359 339" fill="none" xmlns="http://www.w3.org/2000/svg">
<path d="M87.257 52.5001C59.2507 64.0132 65.4031 96.6108 73.4237 107.363H71.4626C69.0861 108.47 61.1249 119.792 48.2921 156.224C32.251 201.765 43.3907 183.264 41.6083 220.74C39.826 258.216 172.71 311.077 206.574 315.347C240.439 319.616 288.908 317.039 314.306 295.217C334.625 277.76 347.428 235.129 351.29 215.996C347.369 168.179 322.921 146.737 311.187 141.993C256.826 131.082 264.846 122.544 263.064 119.223C261.282 115.902 266.629 115.902 277.768 91.7089C288.908 67.5156 273.313 42.8479 259.499 28.1421C245.686 13.4364 227.417 9.64131 216.723 4.89752C206.029 0.153733 195.335 5.3719 189.543 9.64131C183.75 13.9107 183.304 25.2958 173.502 41.4247C163.699 57.5536 126.067 36.5455 87.257 52.5001Z" fill="white"/>
<path d="M71.7997 106.516C71.7997 106.516 50.3275 38.6638 125.223 46.9451C200.118 55.2264 164.334 25.194 192.635 6.55679C220.936 -12.0804 304.324 45.9014 269.437 101.826C234.55 157.75 325.19 106.593 344.097 190.692C355.765 242.591 326.817 280.789 302.936 302.443" stroke="#CCDDE2" stroke-width="5.47" stroke-miterlimit="10"/>
<path d="M310.24 237.604C304.611 202.796 284.683 171.647 252.305 160.499C244.023 157.663 235.553 155.491 226.968 154.003V154.049C226.52 156.939 225.46 159.681 223.868 162.067C220.494 167.004 215.843 171.059 210.458 173.172C204.961 175.345 198.152 175.626 193.05 172.209C189.979 170.156 186.999 166.539 186.461 162.637C185.846 158.241 187.944 154.079 190.896 151.174C165.878 151.391 142.343 155.787 123.484 160.793C124.138 163.716 125.043 166.568 126.188 169.313C127.792 173.139 130.057 176.608 132.866 179.537C136.369 175.83 139.437 171.682 142 167.183C144.453 168.04 146.616 169.648 148.219 171.808C149.822 173.967 150.796 176.582 151.019 179.328V179.468C152.009 189.441 143.018 196.934 135.463 201.543C126.735 206.902 117.006 210.915 107.449 214.251C103.508 215.631 98.3859 216.807 94.2255 215.367C93.7775 215.214 93.3403 215.028 92.9171 214.809C88.7687 212.636 85.9924 208.082 83.8264 203.92C77.6556 192.099 73.6428 179.213 70.9224 165.986C52.043 168.563 49.881 154.91 48.7601 151.562L32.6091 199.78C31.7619 203.246 31.6705 206.873 32.3411 210.383C33.012 213.892 34.4276 217.191 36.4791 220.025C38.5302 222.86 41.1629 225.153 44.1741 226.731C47.1857 228.309 50.4957 229.128 53.8499 229.126H120.712L151.083 312.323L159.691 335.935H208.858C204.869 335.935 202.687 334.896 201.104 333.2C199.468 331.453 198.548 329.085 198.543 326.615C198.543 321.503 202.472 317.311 208.858 317.311H209.309C208.826 317.311 208.364 317.264 207.881 317.217C208.18 317.183 208.477 317.13 208.77 317.06C208.454 317.052 208.139 317.026 207.825 316.983C210.705 316.62 213.375 315.187 215.366 312.935C217.357 310.683 218.544 307.755 218.719 304.663C218.727 304.503 218.727 304.342 218.719 304.182V303.935C218.65 300.765 217.515 297.727 215.523 295.377C213.53 293.026 210.812 291.521 207.865 291.134C208.2 291.104 208.519 291.074 208.842 291.074C208.551 290.997 208.228 290.951 207.925 290.904C208.403 290.857 208.886 290.823 209.349 290.823L245.321 291.027L251.938 291.057H259.792C260.155 291.057 260.522 291.057 260.869 291.104L272.537 291.168L280.331 291.215C283.589 291.244 286.703 292.649 288.992 295.124C291.282 297.599 292.561 300.941 292.549 304.42C292.545 306.388 292.118 308.327 291.301 310.09C294.645 309.633 297.746 307.982 300.1 305.404C305.712 299.283 308.13 290.12 309.801 281.975C312.757 267.466 312.581 252.177 310.24 237.604ZM219.357 238.583C212.58 249.723 201.04 248.722 201.04 248.722C201.04 248.722 200.083 249.719 197.849 245.476C195.615 241.233 189.253 238.332 189.253 238.332C188.746 242.592 187.697 249.067 177.286 240.675C166.875 232.283 170.014 220.048 170.904 213.586C171.793 207.124 175.34 204.981 175.34 204.981L179.528 202.621C179.528 202.621 167.414 199.294 166.831 199.171C166.249 199.047 155.459 189.398 166.408 186.851C177.358 184.303 194.426 194.433 197.725 196.436C201.024 198.438 220.302 215.852 220.302 215.852C220.302 215.852 226.17 227.461 219.357 238.583Z" fill="#353642"/>
<path d="M70.9065 165.993C70.9065 165.993 80.0371 164.809 83.4555 157.848L80.4758 175.702C80.4758 175.702 116.799 162.496 123.46 160.792C123.46 160.792 125.606 175.57 134.15 179.536L142.966 167.565C142.966 167.565 154.019 170.547 150.995 186.633C147.972 202.718 106.152 216.163 99.0601 215.852C91.9678 215.541 84.3331 210.88 76.5149 185.836L70.9065 165.993Z" fill="#353642"/>
<path d="M85.7811 126.223C88.0947 130.245 90.4202 134.257 92.8215 138.219C94.3014 140.66 96.9979 144.14 94.1298 146.692C93.1964 147.456 92.0692 147.902 90.8949 147.97C89.052 148.145 87.1174 147.672 85.9965 145.981L80.4121 136.098C79.2992 134.127 77.5317 132.676 75.4622 132.033C73.3924 131.39 71.1722 131.604 69.2432 132.63" stroke="black" stroke-width="5.47" stroke-miterlimit="10"/>
<path d="M106.902 139.24C108.362 142.946 107.373 145.336 105.666 146.537C102.873 148.493 99.1359 147.556 97.1574 144.701L85.801 126.243" stroke="black" stroke-width="5.47" stroke-miterlimit="10"/>
<path d="M95.3942 120.856C99.5267 126.223 104.74 136.191 107.624 140.353C110.508 144.515 114.968 142.006 114.968 142.006C118.59 139.923 117.975 136.468 116.392 132.272C112.491 121.972 106.922 115.122 100.711 110.632C81.465 96.7274 61.72 106.985 55.8444 130.986L32.6091 199.779C31.7619 203.246 31.6705 206.873 32.3411 210.383C33.012 213.892 34.4276 217.191 36.4791 220.025C38.5302 222.859 41.1629 225.153 44.1741 226.731C47.1857 228.309 50.4957 229.128 53.8499 229.126H120.712L159.703 335.939" stroke="black" stroke-width="5.47" stroke-miterlimit="10"/>
<path d="M119.268 127.547C124.054 125.775 123.835 117.622 117.042 114.87C109.539 111.828 96.216 107.526 92.8693 106.452C92.8486 106.435 92.8234 106.425 92.7975 106.423C92.5622 106.346 92.3986 106.282 92.271 106.252L92.0835 106.188" stroke="black" stroke-width="5.47" stroke-miterlimit="10"/>
<path d="M189.991 209.069C185.803 203.693 174.338 200.648 166.855 199.174C165.598 198.921 164.451 198.239 163.587 197.231C162.724 196.222 162.191 194.941 162.069 193.58C161.982 192.663 162.081 191.736 162.36 190.862C162.806 189.522 163.661 188.38 164.787 187.62C165.913 186.86 167.245 186.526 168.571 186.671C181.335 188.051 194.498 192.341 204.235 201.58C204.235 201.58 251.436 240.048 257.072 243.792C259.397 245.3 261.567 243.519 259.992 241.151L259.497 240.248C256.723 235.163 253.439 230.415 249.705 226.088" stroke="black" stroke-width="5.47" stroke-miterlimit="10"/>
<path d="M190.864 151.169C131.502 151.697 80.4758 175.697 80.4758 175.697L85.5696 145.205" stroke="black" stroke-width="5.47" stroke-miterlimit="10"/>
<path d="M283.063 317.122C283.063 317.122 276.597 315.559 274.878 321.088C273.159 326.618 271.364 335.414 283.726 335.934C296.087 336.454 288.827 333.86 288.113 329.587C287.399 325.314 283.063 317.122 283.063 317.122Z" fill="#353642"/>
<path d="M184.287 216.086C184.287 216.086 177.31 210.437 171.028 216.163C170.763 216.412 170.532 216.698 170.342 217.015" stroke="black" stroke-width="5.47" stroke-miterlimit="10"/>
<g opacity="0.77">
<path opacity="0.77" d="M97.1337 144.681C99.1281 147.54 102.862 148.473 105.642 146.513C107.329 145.32 108.319 142.943 106.894 139.271C107.154 139.676 107.389 140.034 107.62 140.362C110.5 144.541 114.964 142.023 114.964 142.023C118.586 139.94 117.976 136.485 116.392 132.285C114.842 128.125 112.809 124.189 110.341 120.57C111.956 118.956 113.875 117.324 115.897 118.04C118.079 118.815 118.69 121.738 118.937 124.174C119.053 125.307 119.168 126.428 119.284 127.561L121.031 144.243C121.613 149.781 122.196 155.399 123.46 160.805C124.114 163.728 125.019 166.58 126.165 169.325C127.768 173.152 130.033 176.621 132.842 179.549C136.346 175.842 139.413 171.694 141.977 167.195C144.429 168.052 146.592 169.661 148.195 171.82C149.799 173.98 150.773 176.594 150.996 179.34V179.481C151.985 189.453 142.994 196.946 135.439 201.556C126.711 206.915 116.982 210.928 107.425 214.263C103.484 215.643 98.3622 216.819 94.2018 215.379C93.7539 215.227 93.3167 215.04 92.8935 214.821C88.745 212.649 85.9688 208.095 83.8028 203.933C73.4317 184.018 69.1237 161.15 66.854 138.505C71.3934 137.836 75.9168 137.09 80.3843 136.064C80.3843 136.064 80.3843 136.098 80.4122 136.11L85.5619 145.231L85.9847 145.989C87.1016 147.693 89.0362 148.149 90.8831 147.979C92.0574 147.916 93.1855 147.47 94.1141 146.701C96.9781 144.145 94.2896 140.677 92.8057 138.236" fill="white"/>
<path opacity="0.77" d="M97.1337 144.681C99.1281 147.54 102.862 148.473 105.642 146.513C107.329 145.32 108.319 142.943 106.894 139.271C107.154 139.676 107.389 140.034 107.62 140.362C110.5 144.541 114.964 142.023 114.964 142.023C118.586 139.94 117.976 136.485 116.392 132.285C114.842 128.125 112.809 124.189 110.341 120.57C111.956 118.956 113.875 117.324 115.897 118.04C118.079 118.815 118.69 121.738 118.937 124.174C119.053 125.307 119.168 126.428 119.284 127.561L121.031 144.243C121.613 149.781 122.196 155.399 123.46 160.805C124.114 163.728 125.019 166.58 126.165 169.325C127.768 173.152 130.033 176.621 132.842 179.549C136.346 175.842 139.413 171.694 141.977 167.195C144.429 168.052 146.592 169.661 148.195 171.82C149.799 173.98 150.773 176.594 150.996 179.34V179.481C151.985 189.453 142.994 196.946 135.439 201.556C126.711 206.915 116.982 210.928 107.425 214.263C103.484 215.643 98.3622 216.819 94.2018 215.379C93.7539 215.227 93.3167 215.04 92.8935 214.821C88.745 212.649 85.9688 208.095 83.8028 203.933C73.4317 184.018 69.1237 161.15 66.854 138.505C71.3934 137.836 75.9168 137.09 80.3843 136.064C80.3843 136.064 80.3843 136.098 80.4122 136.11L85.5619 145.231L85.9847 145.989C87.1016 147.693 89.0362 148.149 90.8831 147.979C92.0574 147.916 93.1855 147.47 94.1141 146.701C96.9781 144.145 94.2896 140.677 92.8057 138.236" fill="#3FBDF1"/>
<path opacity="0.77" d="M98.3582 146.032C100.125 148.588 103.145 148.264 105.642 146.513C107.15 145.448 108.386 145.759 107.114 142.475C107.349 142.833 107.381 141.623 107.589 141.891C110.161 145.623 107.62 140.349 107.62 140.349C111.21 145.193 119.025 140.63 117.593 136.886C116.077 132.852 114.481 126.888 112.459 123.906C114.055 122.296 113.747 122.534 115.778 123.816C116.323 124.19 116.78 124.695 117.111 125.29C117.443 125.885 117.641 126.555 117.688 127.246C117.852 128.869 118.015 130.424 118.179 132.008L119.735 146.918C120.257 151.872 120.776 156.878 121.905 161.7C122.488 164.307 123.298 166.851 124.322 169.3C125.75 172.669 130.337 178.28 132.842 180.848C135.957 177.547 139.691 171.476 141.977 167.442C146.365 168.882 146.173 173.364 146.484 178.258V178.386C147.37 187.285 139.344 193.969 132.619 198.088C124.825 202.872 116.141 206.45 107.608 209.432C104.09 210.668 99.519 211.733 95.8053 210.429C95.4049 210.294 95.0139 210.127 94.6366 209.931C90.9349 207.988 88.4538 203.929 86.5192 200.21C78.0508 183.967 74.1217 165.525 71.9598 147.037C71.801 145.654 72.1516 144.259 72.9374 143.146C73.7232 142.034 74.8828 141.29 76.172 141.073C78.6013 140.647 81.0225 140.221 83.4278 139.651L83.4956 139.685L88.0908 147.825C89.092 149.338 89.2556 148.153 90.903 148C91.9441 147.902 93.9625 147.685 94.7682 146.965C97.3251 144.69 95.8811 143.749 94.5568 141.572" fill="#3FBDF1"/>
</g>
<path d="M183.445 224.308C183.445 224.308 170.198 219.657 169.999 227.478" stroke="black" stroke-width="5.47" stroke-miterlimit="10"/>
<path opacity="0.54" d="M64.8672 303.98L38.8876 232.899C38.5657 231.523 38.5417 230.088 38.817 228.701C39.0926 227.314 39.6606 226.012 40.4776 224.895C41.2949 223.778 42.3396 222.874 43.533 222.252C44.7261 221.631 46.0365 221.308 47.364 221.308H150.557C152.874 221.307 155.123 222.14 156.944 223.672C158.763 225.203 160.047 227.345 160.589 229.751L189.029 300.815C189.337 302.186 189.349 303.613 189.066 304.99C188.782 306.367 188.211 307.657 187.394 308.764C186.576 309.871 185.535 310.766 184.347 311.381C183.16 311.996 181.857 312.316 180.537 312.317H74.8753C72.5753 312.318 70.3412 311.498 68.5278 309.988C66.7145 308.477 65.4261 306.363 64.8672 303.98Z" fill="white"/>
<path d="M187.757 236.298C187.757 236.298 189.907 238.403 189.089 241.41C188.483 243.638 186.409 245.044 184.354 244.282C177.813 241.866 171.921 237.764 170.485 230.79C169.807 227.26 169.66 223.636 170.05 220.055C170.365 216.737 170.824 213.154 171.869 209.998C173.465 205.15 178.351 201.772 183.094 204.106" stroke="black" stroke-width="5.47" stroke-miterlimit="10"/>
<path d="M64.8672 303.98L38.8876 232.899C38.5657 231.523 38.5417 230.088 38.817 228.701C39.0926 227.314 39.6606 226.012 40.4776 224.895C41.2949 223.778 42.3396 222.874 43.533 222.252C44.7261 221.631 46.0365 221.308 47.364 221.308H150.557C152.874 221.307 155.123 222.14 156.944 223.672C158.763 225.203 160.047 227.345 160.589 229.751L189.029 300.815C189.337 302.186 189.349 303.613 189.066 304.99C188.782 306.367 188.211 307.657 187.394 308.764C186.576 309.871 185.535 310.766 184.347 311.381C183.16 311.996 181.857 312.316 180.537 312.317H74.8753C72.5753 312.318 70.3412 311.498 68.5278 309.988C66.7145 308.477 65.4261 306.363 64.8672 303.98Z" fill="#3FBDF1"/>
<path d="M64.8672 303.98L38.8876 232.899C38.5657 231.523 38.5417 230.088 38.817 228.701C39.0926 227.314 39.6606 226.012 40.4776 224.895C41.2949 223.778 42.3396 222.874 43.533 222.252C44.7261 221.631 46.0365 221.308 47.364 221.308H150.557C152.874 221.307 155.123 222.14 156.944 223.672C158.763 225.203 160.047 227.345 160.589 229.751L189.029 300.815C189.337 302.186 189.349 303.613 189.066 304.99C188.782 306.367 188.211 307.657 187.394 308.764C186.576 309.871 185.535 310.766 184.347 311.381C183.16 311.996 181.857 312.316 180.537 312.317H74.8753C72.5753 312.318 70.3412 311.498 68.5278 309.988C66.7145 308.477 65.4261 306.363 64.8672 303.98Z" stroke="black" stroke-width="5.47" stroke-linecap="square" stroke-linejoin="round"/>
<path d="M68.6687 301.117L44.6995 235.514C44.4031 234.245 44.3816 232.921 44.6361 231.642C44.8905 230.362 45.4147 229.162 46.169 228.131C46.9229 227.101 47.887 226.267 48.9875 225.694C50.0885 225.12 51.2971 224.822 52.5217 224.822H147.72C149.858 224.821 151.933 225.589 153.612 227.002C155.291 228.414 156.476 230.39 156.975 232.609L183.218 298.174C183.501 299.439 183.512 300.756 183.25 302.026C182.989 303.297 182.461 304.487 181.706 305.508C180.952 306.529 179.991 307.355 178.895 307.922C177.8 308.49 176.597 308.785 175.379 308.785H77.899C75.7805 308.787 73.7222 308.034 72.0505 306.645C70.3783 305.256 69.1885 303.311 68.6687 301.117Z" fill="#3FBDF1"/>
<path d="M272.409 290.826L290.662 335.934" stroke="black" stroke-width="5.47" stroke-miterlimit="10"/>
<path d="M359 335.935H0" stroke="black" stroke-width="5.47" stroke-miterlimit="10"/>
<path d="M189.221 132.344C186.261 135.466 181.841 135.462 179.324 132.574" stroke="black" stroke-width="5.47" stroke-miterlimit="10"/>
<path d="M110.341 120.557C111.956 118.942 113.875 117.311 115.897 118.026C118.079 118.802 118.69 121.724 118.937 124.16C119.636 130.857 120.334 137.547 121.031 144.229C121.917 152.749 122.85 161.473 126.165 169.303C127.768 173.13 130.033 176.598 132.842 179.527" stroke="black" stroke-width="5.47" stroke-miterlimit="10"/>
<path d="M150.995 179.476V179.335C150.772 176.59 149.798 173.974 148.195 171.815C146.592 169.656 144.429 168.048 141.976 167.19C139.413 171.689 136.345 175.838 132.842 179.544C123.657 189.298 111.857 195.758 99.0799 198.028C99.6942 200.639 100.959 203.016 101.832 205.529C102.706 208.043 103.141 210.952 102.08 213.376C100.739 216.469 96.894 216.064 94.2215 215.378C94.1935 215.378 94.1776 215.378 94.1497 215.378" stroke="black" stroke-width="5.47" stroke-miterlimit="10"/>
<path d="M80.3921 136.059C75.9246 137.086 71.4012 137.831 66.8618 138.5C69.1315 161.146 73.4235 184.013 83.8106 203.928C85.9766 208.09 88.7528 212.644 92.9013 214.817C93.3245 215.036 93.7617 215.223 94.2096 215.375C98.37 216.836 103.492 215.639 107.433 214.259C117.006 210.919 126.719 206.91 135.447 201.551C142.982 196.938 151.973 189.449 151.003 179.476C150.91 178.378 150.699 177.295 150.377 176.247" stroke="black" stroke-width="5.47" stroke-miterlimit="10"/>
<path d="M155.096 89.937C155.766 92.9181 157.294 95.5993 159.466 97.6032C161.638 99.6075 164.344 100.833 167.202 101.107C167.44 99.8771 167.955 98.7274 168.702 97.7587C171.893 93.7416 173.254 101.277 183.461 95.8673C197.606 88.3528 202.975 92.6638 202.975 92.6638C203.446 93.0387 203.374 96.4973 203.453 97.1278C203.852 100.719 204.211 104.293 204.606 107.88C204.846 110.069 205.081 112.242 205.304 114.415C205.497 114.045 205.71 113.688 205.943 113.345C207.231 108.476 209.533 102.726 214.495 105.201C215.5 105.724 216.374 106.493 217.048 107.445C220.338 112.063 217.845 116.523 214.403 119.825C213.54 120.849 212.576 121.77 211.527 122.573C212.093 123.825 214.407 128.796 214.407 128.814C214.646 129.316 222.732 119.543 223.334 118.479C224.234 115.87 224.717 113.118 224.762 110.338C224.894 98.9089 220.538 85.6047 211.87 79.0487C209.72 77.4256 210.406 75.8622 210.275 73.6556C210.265 73.5363 210.223 73.423 210.152 73.3301C210.081 73.2373 209.985 73.1695 209.878 73.1359C209.77 73.1022 209.656 73.1044 209.549 73.1414C209.443 73.1789 209.349 73.2496 209.281 73.345C206.565 76.6848 199.84 76.3526 199.84 76.3526C176.497 70.1075 168.65 81.1918 163.94 83.1684C162.017 83.9459 159.902 83.9834 157.956 83.2749C157.842 83.9625 157.553 84.6036 157.123 85.1293C156.691 85.6549 156.134 86.0447 155.511 86.2569L155.631 87.4109C155.732 88.294 155.543 89.1869 155.096 89.937Z" fill="#3FBDF1"/>
<path d="M167.218 102.074C164.359 101.8 161.653 100.575 159.481 98.5708C157.309 96.5669 155.781 93.8853 155.112 90.9046C154.85 89.7613 154.684 88.5949 154.617 87.42L154.801 87.3987C155.052 87.3787 155.298 87.3212 155.535 87.2283C156.158 87.0162 156.715 86.6264 157.146 86.1007C157.577 85.5755 157.865 84.9339 157.98 84.2464C158.053 83.8651 158.068 83.4736 158.024 83.0877L157.425 77.4475C157.425 77.4475 161.646 80.8001 166.329 78.8405C171.012 76.881 178.874 65.7966 202.229 72.0247C202.229 72.0247 207.502 72.3569 210.206 69.0171C210.275 68.9217 210.368 68.851 210.474 68.8139C210.581 68.7765 210.695 68.7747 210.803 68.8084C210.91 68.8421 211.006 68.9098 211.077 69.0022C211.148 69.0951 211.19 69.2088 211.2 69.3281C211.339 71.539 212.105 73.1024 214.259 74.7212C222.927 81.2815 227.283 94.581 227.147 106.01C227.107 110.752 225.631 115.433 223.354 119.45C222.751 120.515 214.666 130.288 214.427 129.785C214.427 129.785 212.113 124.797 211.547 123.544L211.411 123.267L211.67 123.084C212.633 122.386 213.553 121.622 214.423 120.797C217.861 117.495 220.358 113.035 217.067 108.417C216.394 107.465 215.519 106.695 214.514 106.172C209.536 103.697 207.251 109.448 205.962 114.317C205.712 115.248 205.558 116.205 205.503 117.171C205.444 116.575 205.384 116 205.324 115.403C205.101 113.231 204.865 111.058 204.626 108.869C204.227 105.282 203.852 101.708 203.473 98.1167C203.413 97.5033 203.473 94.0272 202.994 93.6523C202.994 93.6523 197.621 89.3412 183.481 96.8558C173.273 102.266 171.913 94.7258 168.722 98.7472C167.974 99.7163 167.459 100.866 167.222 102.095C167.149 102.49 167.102 102.89 167.082 103.292C167.075 103.344 167.075 103.398 167.082 103.45C167.035 104.332 167.019 105.209 166.999 106.07C166.923 114.373 167.777 123.046 170.828 130.756C174.538 140.103 184.354 149.321 194.562 144.963C197.753 143.596 200.613 141.393 203.23 139.055" stroke="black" stroke-width="5.47" stroke-miterlimit="10"/>
<path d="M174.204 122.323C175.219 121.96 175.709 120.603 175.298 119.291C174.887 117.979 173.731 117.21 172.715 117.573C171.7 117.935 171.21 119.293 171.621 120.605C172.032 121.917 173.189 122.686 174.204 122.323Z" fill="black"/>
<path d="M189.392 121.804C190.407 121.441 190.897 120.084 190.486 118.772C190.075 117.46 188.919 116.69 187.903 117.053C186.888 117.416 186.398 118.774 186.809 120.086C187.22 121.398 188.376 122.167 189.392 121.804Z" fill="black"/>
<path d="M183.585 124.613C183.585 124.613 178.531 127.676 178.224 124.498C178.128 123.518 176.891 113.921 176.891 113.921C176.891 113.921 172.807 109.299 166.548 112.715" stroke="black" stroke-width="5.47" stroke-miterlimit="10"/>
<path d="M182.448 111.232C182.448 111.232 190.609 106.878 196.01 113.153" stroke="black" stroke-width="5.47" stroke-miterlimit="10"/>
<path d="M189.931 146.032L190.868 151.169C187.913 154.079 185.822 158.249 186.433 162.641C186.975 166.535 189.959 170.16 193.018 172.2C198.132 175.608 204.933 175.34 210.438 173.172C215.819 171.042 220.474 166.999 223.848 162.066C225.438 159.681 226.496 156.941 226.944 154.053V154.002" stroke="black" stroke-width="5.47" stroke-miterlimit="10"/>
<path d="M190.868 151.169L192.695 160.447" stroke="black" stroke-width="5.47" stroke-miterlimit="10"/>
<path d="M216.704 127.548L219.465 147.122C219.737 149.038 220.644 150.787 222.021 152.049C223.398 153.312 225.153 154.005 226.968 154.002C235.559 155.489 244.033 157.659 252.321 160.494C284.699 171.647 304.628 202.795 310.256 237.599C312.597 252.172 312.773 267.457 309.833 281.949C308.162 290.107 305.744 299.27 300.132 305.379C292.844 313.345 281.66 310.064 273.047 306.465C246.31 295.359 224.072 275.602 204.869 252.981C194.602 240.883 181.335 231.188 181.335 231.188" stroke="black" stroke-width="5.47" stroke-miterlimit="10"/>
<path d="M77.5041 286.435C74.5045 286.405 71.8918 283.819 71.2176 280.22C69.8853 273.14 69.5343 262.192 79.2553 259.802C91.4014 256.82 100.743 270.946 105.323 279.875C106.862 282.857 105.119 286.691 102.251 286.691L77.5041 286.435Z" fill="#D7E8F0"/>
<path d="M81.5143 253.79C84.0927 251.958 84.1326 247.181 81.6025 243.121C79.0727 239.06 74.9314 237.254 72.3526 239.086C69.7738 240.919 69.7343 245.696 72.2641 249.756C74.7942 253.817 78.9355 255.623 81.5143 253.79Z" fill="#D7E8F0"/>
<path d="M281.125 317.356C280.937 317.386 280.726 317.416 280.542 317.463H280.471L252.098 317.305L209.524 317.071C209.361 317.071 209.201 317.071 209.042 317.071C208.725 317.063 208.41 317.037 208.096 316.994C210.981 316.636 213.654 315.203 215.647 312.948C217.64 310.692 218.824 307.758 218.99 304.662C218.998 304.501 218.998 304.341 218.99 304.18V303.933C218.978 300.904 217.99 297.971 216.191 295.629C214.392 293.287 211.893 291.677 209.113 291.073C208.822 290.996 208.503 290.949 208.196 290.902C208.679 290.855 209.157 290.821 209.624 290.821L245.592 291.026L252.213 291.055L261.144 291.102C264.202 291.401 267.046 292.906 269.12 295.325C271.194 297.743 272.348 300.901 272.357 304.18C272.358 304.799 272.314 305.417 272.226 306.029C271.8 309.151 270.34 312.007 268.11 314.076C265.88 316.145 263.03 317.291 260.075 317.305H281.687C280.443 317.305 280.79 317.305 281.125 317.356Z" fill="white"/>
<path d="M223.573 333.2C224.384 334.071 225.348 334.761 226.41 335.23C227.472 335.7 228.611 335.939 229.76 335.935H208.866C204.877 335.935 202.699 334.896 201.112 333.2C199.48 331.45 198.562 329.084 198.555 326.615C198.555 321.503 202.48 317.311 208.866 317.311H229.76C228.035 317.308 226.348 317.852 224.913 318.874C223.478 319.896 222.359 321.35 221.699 323.052C221.038 324.754 220.866 326.627 221.203 328.434C221.54 330.24 222.372 331.899 223.593 333.2H223.573Z" fill="#D7E8F0"/>
<path d="M292.577 304.415C292.572 306.382 292.143 308.322 291.325 310.085C290.74 311.417 289.938 312.627 288.955 313.659C287.335 315.373 285.301 316.572 283.08 317.122C282.164 317.348 281.227 317.462 280.287 317.463C280.479 317.416 280.686 317.386 280.87 317.356C280.535 317.322 280.188 317.309 281.436 317.309H259.82C262.776 317.297 265.63 316.152 267.862 314.081C270.093 312.011 271.554 309.153 271.978 306.029C272.067 305.417 272.11 304.799 272.11 304.18C272.101 300.901 270.946 297.742 268.872 295.323C266.797 292.905 263.952 291.4 260.893 291.102L272.561 291.166L280.355 291.213C283.612 291.242 286.726 292.647 289.016 295.121C291.307 297.595 292.587 300.936 292.577 304.415Z" fill="#3FBDF1"/>
<path d="M292.577 304.411C292.553 307.892 291.238 311.22 288.92 313.668C286.603 316.115 283.471 317.481 280.212 317.468L209.241 317.076C208.767 317.076 208.292 317.038 207.813 316.986C210.805 316.624 213.568 315.103 215.58 312.71C217.591 310.318 218.71 307.221 218.726 304.005C218.742 300.79 217.653 297.68 215.665 295.266C213.677 292.851 210.929 291.298 207.941 290.903C208.415 290.85 208.892 290.824 209.369 290.826L280.339 291.218C283.598 291.242 286.715 292.644 289.009 295.116C291.303 297.588 292.585 300.931 292.577 304.411Z" stroke="black" stroke-width="5.47" stroke-linecap="square" stroke-linejoin="round"/>
<path d="M272.102 304.176C272.096 307.656 270.799 310.992 268.494 313.452C266.19 315.913 263.067 317.299 259.808 317.305H209.313C208.836 317.302 208.359 317.274 207.885 317.22C210.874 316.841 213.63 315.304 215.629 312.901C217.629 310.497 218.733 307.393 218.733 304.178C218.733 300.964 217.629 297.86 215.629 295.456C213.63 293.053 210.874 291.516 207.885 291.137C208.36 291.09 208.838 291.056 209.313 291.056H259.808C263.065 291.063 266.187 292.448 268.491 294.907C270.794 297.366 272.093 300.698 272.102 304.176Z" stroke="black" stroke-width="5.47" stroke-linecap="square" stroke-linejoin="round"/>
<path d="M198.555 326.617C198.555 327.839 198.78 329.049 199.218 330.178C199.656 331.306 200.298 332.331 201.108 333.195C202.703 334.899 204.869 335.934 208.862 335.934H281.432C280.184 335.934 280.523 335.908 280.862 335.874C278.738 335.607 276.781 334.517 275.36 332.811C273.939 331.105 273.154 328.901 273.154 326.617C273.154 324.334 273.939 322.13 275.36 320.424C276.781 318.718 278.738 317.628 280.862 317.36C280.523 317.326 280.184 317.301 281.432 317.301H208.862C202.472 317.305 198.555 321.497 198.555 326.617Z" stroke="black" stroke-width="5.47" stroke-linecap="square" stroke-linejoin="round"/>
<path d="M221.012 326.617C221.018 329.087 221.939 331.453 223.573 333.199C225.208 334.945 227.424 335.928 229.736 335.934H279.849C280.184 335.934 280.523 335.908 280.862 335.874C278.738 335.607 276.781 334.517 275.36 332.811C273.939 331.105 273.154 328.901 273.154 326.617C273.154 324.334 273.939 322.13 275.36 320.424C276.781 318.718 278.738 317.628 280.862 317.36C280.523 317.326 280.184 317.301 279.849 317.301H229.736C227.425 317.308 225.209 318.291 223.575 320.037C221.94 321.783 221.019 324.149 221.012 326.617Z" stroke="black" stroke-width="5.47" stroke-linecap="square" stroke-linejoin="round"/>
<path d="M139.779 255.537H117.393C116.369 255.535 115.367 255.215 114.51 254.616C113.653 254.017 112.978 253.165 112.566 252.163C112.408 251.79 112.339 251.38 112.369 250.972C112.398 250.563 112.524 250.17 112.734 249.827C112.944 249.484 113.232 249.204 113.571 249.012C113.91 248.82 114.289 248.723 114.673 248.73H138.47C137.349 250.744 137.92 253.543 139.779 255.537Z" fill="#D7E8F0"/>
<path d="M154.254 253.074C154.253 253.726 154.011 254.35 153.579 254.811C153.148 255.272 152.563 255.531 151.953 255.532H139.779C137.92 253.543 137.349 250.744 138.47 248.716H149.22C150.243 248.716 151.244 249.034 152.102 249.629C152.959 250.225 153.636 251.074 154.051 252.073C154.18 252.389 154.249 252.729 154.254 253.074Z" fill="#3FBDF1"/>
<path d="M148.654 255.536C148.591 255.666 148.517 255.79 148.434 255.907C146.839 258.237 143.373 258.463 140.68 256.359C140.362 256.108 140.061 255.833 139.779 255.536C137.92 253.547 137.349 250.748 138.47 248.721C138.533 248.591 138.607 248.467 138.69 248.35C140.285 246.003 143.736 245.794 146.428 247.881C146.752 248.14 147.057 248.425 147.341 248.733C149.184 250.714 149.759 253.496 148.654 255.536Z" fill="white"/>
<path d="M159.883 268.083C159.878 268.735 159.633 269.359 159.199 269.819C158.766 270.278 158.18 270.537 157.569 270.537H134.079C135.211 268.5 134.645 265.723 132.782 263.721H154.849C155.874 263.721 156.876 264.04 157.734 264.638C158.591 265.236 159.267 266.088 159.679 267.09C159.811 267.403 159.88 267.74 159.883 268.083Z" fill="#3FBDF1"/>
<path d="M134.079 270.535H123.025C122.002 270.536 121.001 270.219 120.143 269.623C119.285 269.027 118.609 268.178 118.195 267.178C118.064 266.866 117.995 266.528 117.991 266.186C117.991 265.864 118.05 265.544 118.165 265.246C118.281 264.948 118.45 264.678 118.663 264.45C118.877 264.222 119.13 264.041 119.409 263.918C119.688 263.795 119.987 263.732 120.289 263.732H132.782C134.645 265.722 135.223 268.499 134.079 270.535Z" fill="#D7E8F0"/>
<path d="M134.078 270.536C134.027 270.67 133.958 270.796 133.875 270.911C132.279 273.254 128.825 273.467 126.137 271.375C125.811 271.116 125.505 270.831 125.219 270.523C123.372 268.534 122.806 265.756 123.911 263.707C123.975 263.576 124.048 263.451 124.13 263.332C125.726 261.002 129.192 260.776 131.881 262.885C132.201 263.133 132.502 263.408 132.782 263.707C134.645 265.722 135.223 268.5 134.078 270.536Z" fill="white"/>
<path d="M141.905 285.434H127.84C126.817 285.432 125.817 285.114 124.96 284.519C124.102 283.923 123.425 283.075 123.01 282.077C122.851 281.703 122.784 281.292 122.813 280.883C122.843 280.474 122.969 280.079 123.179 279.735C123.39 279.392 123.678 279.111 124.017 278.918C124.356 278.724 124.735 278.626 125.12 278.63H140.597C139.488 280.671 140.058 283.444 141.905 285.434Z" fill="#3FBDF1"/>
<path d="M164.697 282.996C164.694 283.644 164.45 284.265 164.02 284.722C163.589 285.178 163.006 285.434 162.4 285.433H141.905C140.058 283.444 139.487 280.666 140.596 278.617H159.663C160.688 278.617 161.69 278.936 162.548 279.534C163.406 280.133 164.082 280.985 164.494 281.987C164.625 282.305 164.694 282.648 164.697 282.996Z" fill="#D7E8F0"/>
<path d="M150.78 285.434C150.716 285.564 150.643 285.69 150.561 285.808C148.965 288.151 145.515 288.364 142.822 286.273C142.499 286.013 142.193 285.728 141.909 285.421C140.062 283.431 139.491 280.654 140.6 278.605C140.661 278.473 140.733 278.348 140.816 278.23C142.411 275.9 145.878 275.7 148.57 277.783C148.89 278.031 149.192 278.306 149.472 278.605C151.33 280.62 151.897 283.414 150.78 285.434Z" fill="white"/>
<path d="M44.5203 149.623L44.8713 149.73L44.7397 150.275C44.6563 150.062 44.5829 149.844 44.5203 149.623Z" fill="#353642"/>
<path d="M106.945 183.704C112.196 182.058 114.954 175.275 113.107 168.555C111.26 161.835 105.506 157.721 100.255 159.367C95.0042 161.014 92.2455 167.796 94.0928 174.516C95.94 181.237 101.694 185.35 106.945 183.704Z" fill="#D7E8F0"/>
</svg>
